<?xml version="1.0" encoding="UTF-8" standalone="no"?>
<svg
   version="1.1"
   x="0px"
   y="0px"
   viewBox="0 0 80.780998 88.833"
   xml:space="preserve"
   id="svg4"
   sodipodi:docname="noun-ace-card-900163.svg"
   width="80.780998"
   height="88.833"
   inkscape:version="1.3.1 (91b66b0783, 2023-11-16)"
   xmlns:inkscape="http://www.inkscape.org/namespaces/inkscape"
   xmlns:sodipodi="http://sodipodi.sourceforge.net/DTD/sodipodi-0.dtd"
   xmlns:xlink="http://www.w3.org/1999/xlink"
   xmlns="http://www.w3.org/2000/svg"
   xmlns:svg="http://www.w3.org/2000/svg"><defs
     id="defs4"><linearGradient
       id="linearGradient14"
       inkscape:collect="always"><stop
         style="stop-color:#009ccc;stop-opacity:1;"
         offset="0"
         id="stop13" /><stop
         style="stop-color:#002f4b;stop-opacity:1;"
         offset="1"
         id="stop14" /></linearGradient><linearGradient
       inkscape:collect="always"
       xlink:href="#linearGradient14"
       id="linearGradient13"
       x1="0.21262866"
       y1="48.639859"
       x2="61.697341"
       y2="48.639859"
       gradientUnits="userSpaceOnUse" /></defs><sodipodi:namedview
     id="namedview4"
     pagecolor="#ffffff"
     bordercolor="#fff"
     borderopacity="0.25"
     inkscape:showpageshadow="2"
     inkscape:pageopacity="0.0"
     inkscape:pagecheckerboard="0"
     inkscape:deskcolor="#d1d1d1"
     inkscape:zoom="4.9387307"
     inkscape:cx="-6.6818789"
     inkscape:cy="39.787551"
     inkscape:window-width="1912"
     inkscape:window-height="1032"
     inkscape:window-x="0"
     inkscape:window-y="0"
     inkscape:window-maximized="0"
     inkscape:current-layer="svg4" /><g
     id="g3"
     transform="translate(-9.6519887,-5.5666667)"><path
       d="m 50.5,11.2 c 3.2,-0.6 6.3,0.2 9,2 2.6,1.8 4.4,4.6 4.9,7.7 l 10,56.5 c 0.5,3.1 -0.2,6.1 -1.8,8.6 1.4,-0.2 2.8,-0.7 4,-1.5 2,-1.4 3.3,-3.4 3.7,-5.8 l 10,-56.5 c 0.4,-2.4 -0.1,-4.7 -1.5,-6.7 -1.4,-2 -3.4,-3.3 -5.8,-3.7 L 49,5.7 C 46.6,5.3 44.3,5.8 42.3,7.2 40.3,8.6 39,10.6 38.6,13 v 0.3 z"
       id="path1" /><path
       d="m 69.9,84.6 c 1.4,-2 1.9,-4.4 1.5,-6.7 L 61.4,21.4 C 60.7,17.1 57,14 52.6,14 v 0 c -0.5,0 -1,0 -1.6,0.1 l -33.9,6 C 12.2,21 8.9,25.6 9.8,30.5 l 10,56.5 c 0.8,4.3 4.5,7.4 8.9,7.4 0.5,0 1,0 1.6,-0.1 l 33.9,-6 c 2.3,-0.4 4.3,-1.7 5.7,-3.7 z M 36.7,38.5 c 0.4,-0.4 0.9,-0.5 1.4,-0.5 0.3,0 0.5,0.1 0.8,0.2 0.7,0.3 16.4,7 18.1,16.5 0.8,4.7 -2.5,9.3 -7.5,10.5 0.3,0.2 0.5,0.4 0.8,0.6 0.7,0.5 1,1.3 0.8,2.1 -0.2,0.8 -0.8,1.4 -1.6,1.5 l -11.8,2.1 c -0.1,0 -0.2,0 -0.3,0 -0.7,0 -1.3,-0.3 -1.7,-0.9 -0.4,-0.7 -0.4,-1.5 0,-2.2 0.2,-0.3 0.4,-0.6 0.6,-0.9 -0.4,0 -0.8,0.1 -1.2,0.1 -4.8,0 -8.8,-3.1 -9.5,-7.4 C 23.7,50.7 36.2,39 36.7,38.5 Z"
       id="path2" /><path
       d="m 38.1,40 c 0,0 -12.2,11.4 -10.7,19.9 0.6,3.4 3.8,5.7 7.5,5.7 0.5,0 1,0 1.6,-0.1 1.7,-0.6 3,-1.7 3.8,-3.2 -0.6,2.6 -1.6,5 -3.1,7.2 L 49,67.4 c -2.2,-1.6 -4,-3.5 -5.4,-5.7 1.3,1.1 2.8,1.7 4.5,1.7 0.1,0 0.1,0 0.2,0 4.4,-0.8 7.3,-4.5 6.6,-8.4 C 53.4,46.5 38.1,40 38.1,40 Z"
       id="path3" /></g><path
     id="path6"
     style="fill:#ffffff;stroke:#000000;stroke-width:0.004;fill-opacity:1"
     d="M 42.863281 8.5234375 C 42.168044 8.5217485 36.548205 9.460077 24.695312 11.556641 C 15.256949 13.226117 7.1541962 14.688004 6.6894531 14.806641 C 3.7807358 15.54916 1.1440392 18.206158 0.34960938 21.195312 C -0.13009087 23.000253 -0.20038478 22.53698 5.2109375 53.144531 C 8.8622883 73.797321 10.385695 82.111698 10.652344 82.855469 C 11.658005 85.660592 14.283694 87.93678 17.251953 88.576172 C 17.864895 88.708209 18.691262 88.768775 19.435547 88.734375 C 20.909627 88.666256 54.61768 82.703922 55.830078 82.296875 C 59.415499 81.093112 62.045776 77.175998 61.775391 73.443359 C 61.662629 71.886691 51.59954 15.288242 51.267578 14.34375 C 50.050434 10.880756 46.65933 8.5326575 42.863281 8.5234375 z M 28.169922 32.367188 C 28.75418 32.340375 29.481498 32.635381 30.771484 33.234375 C 33.786887 34.634552 37.98551 37.221344 40.417969 39.175781 C 43.990772 42.046467 46.503972 45.425792 47.251953 48.369141 C 47.527404 49.453049 47.558322 51.453476 47.316406 52.490234 C 47.074593 53.526552 46.344163 55.061083 45.654297 55.980469 C 44.576344 57.417057 42.417032 58.933966 40.638672 59.503906 L 40.083984 59.681641 L 40.609375 60.103516 C 40.898193 60.335214 41.226899 60.703463 41.339844 60.921875 C 41.794668 61.801409 41.439026 63.143042 40.628906 63.607422 C 40.371494 63.754977 37.86476 64.26501 34.212891 64.914062 C 30.916265 65.499975 27.969197 65.978806 27.664062 65.978516 C 27.021559 65.977906 26.317686 65.593298 25.960938 65.048828 C 25.564918 64.444428 25.626718 63.325873 26.095703 62.617188 L 26.480469 62.037109 L 25.162109 62.037109 C 22.507577 62.037109 20.125044 61.059922 18.308594 59.228516 C 16.479078 57.383937 15.749834 55.502637 15.740234 52.599609 C 15.72977 49.421563 16.822494 46.219103 19.263672 42.265625 C 20.871119 39.662366 24.132075 35.640267 26.425781 33.433594 C 27.144205 32.74243 27.585664 32.394 28.169922 32.367188 z M 28.457031 34.574219 C 28.382957 34.574219 27.582676 35.381562 26.677734 36.369141 C 20.723873 42.866683 17.744141 48.367188 17.744141 52.861328 C 17.744141 55.71049 19.078668 57.851291 21.617188 59.074219 C 22.982693 59.732049 23.852572 59.923975 25.462891 59.923828 C 26.529232 59.923731 26.802616 59.869965 27.572266 59.505859 C 28.511337 59.061606 29.807863 57.937721 30.296875 57.146484 C 30.459116 56.883974 30.622323 56.698495 30.658203 56.734375 C 30.754964 56.831134 30.166653 58.854037 29.689453 60.064453 C 29.460424 60.645383 28.975542 61.659975 28.613281 62.318359 C 28.251022 62.976746 27.934023 63.563004 27.908203 63.621094 C 27.882384 63.679185 27.945551 63.727116 28.048828 63.728516 C 28.306687 63.731904 38.923983 61.859485 39.001953 61.796875 C 39.036368 61.769241 38.81528 61.547476 38.509766 61.304688 C 36.357636 59.594402 32.533135 54.926108 34.535156 56.453125 C 35.260977 57.006732 36.444978 57.496278 37.5 57.677734 C 38.387249 57.830336 38.537961 57.81567 39.613281 57.478516 C 41.954364 56.744493 43.674178 55.314659 44.625 53.3125 C 45.059077 52.398457 45.133171 52.088721 45.181641 50.980469 C 45.251836 49.375533 44.992986 48.303135 44.154297 46.726562 C 43.399814 45.308282 42.586524 44.233857 41.230469 42.865234 C 39.408055 41.02593 36.669164 38.974698 33.746094 37.261719 C 32.362143 36.450697 28.668621 34.574219 28.457031 34.574219 z " /><path
     style="fill:#fff;fill-opacity:1;stroke-width:0.00769782"
     d="M 4.9805507,52.208571 C 4.9787315,52.203278 4.5507813,49.78799 4.0295501,46.841262 3.508319,43.894535 3.080002,41.475782 3.0777345,41.466256 l -0.00412,-0.01732 h 5.6125486 5.6125489 v 5.384629 5.384628 H 9.6412837 c -3.7190445,0 -4.6580919,-0.0019 -4.660733,-0.0096 z"
     id="path9" /><path
     id="path5"
     style="fill:url(#linearGradient13);fill-opacity:1;stroke:#000000;stroke-width:0.000402738"
     d="M 37.664062 0.10351562 C 35.070655 0.11033988 32.259309 1.5884171 30.636719 3.7988281 C 29.985324 4.6862052 28.847749 7.3516548 29.039062 7.5429688 C 29.072115 7.5760222 31.938318 7.0996942 35.40625 6.484375 C 42.073198 5.3014502 43.699244 5.1731158 45.667969 5.671875 C 49.672151 6.6862997 52.883605 9.4811714 54.238281 13.128906 C 54.502932 13.841535 56.697848 25.654421 59.769531 42.892578 C 64.549712 69.718766 64.864254 71.625826 64.865234 73.90625 C 64.86617 76.076071 64.804824 76.497902 64.296875 77.851562 C 63.984032 78.68527 63.592914 79.574075 63.427734 79.826172 C 63.063745 80.381687 63.023611 80.378667 64.654297 79.875 C 66.064022 79.439578 67.718715 78.328927 68.666016 77.179688 C 70.180506 75.342349 69.960574 76.373365 75.464844 45.367188 C 81.276631 12.628716 81.092044 14.061751 79.824219 11.425781 C 78.694814 9.0776033 76.854099 7.4076211 74.615234 6.6992188 C 73.171837 6.2425114 38.763393 0.10062263 37.664062 0.10351562 z M 43.310547 8.6269531 C 43.061182 8.6187458 42.81102 8.6229239 42.560547 8.6386719 C 41.193815 8.7246021 30.969533 10.47297 13.564453 13.599609 C 6.9349039 14.790538 6.4858379 14.884294 5.6386719 15.240234 C 3.2242066 16.254685 1.1493302 18.63597 0.40234375 21.248047 C 0.15111535 22.126546 0.14942731 22.801217 0.3984375 24.740234 C 0.60708093 26.36492 1.7557304 33.284343 2.6171875 38.109375 C 2.8989625 39.6876 3.1472161 41.182447 3.1679688 41.431641 C 3.2157343 42.005203 4.9124481 51.648424 5.0371094 52.054688 C 5.0880859 52.220815 5.7431354 55.819235 6.4941406 60.052734 C 9.7143807 78.205587 10.523639 82.472141 10.916016 83.359375 C 11.98142 85.76844 14.371651 87.75066 17.064453 88.457031 C 18.450264 88.820555 19.279954 88.747512 25.203125 87.751953 C 34.096991 86.257087 50.951391 83.248889 54.539062 82.515625 C 56.174018 82.181465 57.007803 81.818171 58.167969 80.933594 C 59.661315 79.794977 60.902528 77.971121 61.421875 76.150391 C 61.813818 74.776327 61.794351 73.724796 61.322266 70.931641 C 59.198057 58.363518 52.000382 18.014573 51.351562 15.037109 C 50.581973 11.505414 47.051019 8.7500622 43.310547 8.6269531 z M 28.183594 32.371094 C 28.518746 32.349492 28.883611 32.401405 29.269531 32.529297 C 30.039329 32.784406 33.051488 34.292762 34.585938 35.191406 C 36.522338 36.325451 39.203777 38.126476 40.488281 39.15625 C 43.850406 41.851628 46.434502 45.274587 47.220703 48.076172 C 47.488421 49.030177 47.59545 51.053822 47.433594 52.085938 C 47.198253 53.586648 46.23412 55.483592 45.103516 56.673828 C 43.970931 57.866144 42.077196 59.105118 40.765625 59.509766 L 40.199219 59.683594 L 40.5625 59.998047 C 41.350159 60.675668 41.583531 61.096319 41.582031 61.841797 C 41.580821 62.434218 41.199027 63.298599 40.832031 63.539062 C 40.686952 63.634122 40.308469 63.773789 39.992188 63.849609 C 39.027011 64.080986 34.342304 64.954543 31.414062 65.449219 C 29.891214 65.706477 28.303993 65.938854 27.888672 65.964844 C 27.186992 66.008749 27.098095 65.989545 26.617188 65.707031 C 26.241955 65.486596 26.04073 65.282986 25.886719 64.964844 C 25.526264 64.220244 25.648966 63.117964 26.173828 62.380859 L 26.375 62.097656 L 24.943359 62.048828 C 22.855676 61.978051 21.129402 61.456539 19.673828 60.455078 C 18.416615 59.590093 17.102194 58.07971 16.515625 56.826172 C 15.899463 55.509391 15.769878 54.778642 15.767578 52.607422 C 15.765791 50.950165 15.800103 50.490395 15.986328 49.654297 C 16.697604 46.46087 18.345376 43.210284 21.148438 39.46875 C 23.269114 36.638063 26.262066 33.312582 27.279297 32.658203 C 27.543218 32.488425 27.84844 32.392696 28.183594 32.371094 z M 28.412109 34.730469 C 28.010695 34.857874 24.495075 38.874133 22.818359 41.121094 C 18.272507 47.212976 16.772683 52.476554 18.546875 56.115234 C 19.036668 57.119746 20.225285 58.26944 21.394531 58.869141 C 22.923618 59.653403 23.564103 59.806641 25.322266 59.806641 L 26.832031 59.806641 L 27.486328 59.466797 C 28.570615 58.903132 29.406545 58.198686 30.189453 57.189453 C 30.76726 56.444616 30.818101 56.57764 30.460938 57.888672 C 30.081018 59.283233 29.602575 60.4769 28.773438 62.097656 C 28.370414 62.885465 28.023566 63.567551 28.003906 63.613281 C 27.984247 63.659011 28.120852 63.671465 28.306641 63.640625 C 31.074088 63.181187 38.151199 61.931684 38.662109 61.8125 L 38.914062 61.753906 L 38.5625 61.449219 C 36.829401 59.950241 33.929688 56.70524 33.929688 56.263672 C 33.929688 56.046639 34.136804 56.110787 34.785156 56.533203 C 35.589624 57.057336 36.414124 57.386361 37.447266 57.595703 C 38.214654 57.7512 38.336114 57.751973 38.921875 57.607422 C 41.70931 56.919554 43.776007 55.221096 44.785156 52.787109 C 45.132845 51.94851 45.216432 50.094676 44.958984 48.9375 C 44.751497 48.004874 43.864196 46.206509 43.042969 45.056641 C 41.888717 43.440475 39.489062 41.218176 36.902344 39.371094 C 34.402957 37.586374 28.896194 34.576827 28.412109 34.730469 z " /></svg>
